# xmcd
#
# Track frame offsets:
#	187
#	19657
#	35417
#	47002
#	62537
#	77582
#	91622
#	106227
#	121105
#	139317
#	155212
#	170352
#	188272
#	202252
#	218050
#	230487
#
# Disc length: 3304 seconds
#
# Revision: 0
# Processed by: cddbd v1.5.2PL0 Copyright (c) Steve Scherf et al.
# Submitted via: audiograbber 1.83.01
#
DISCID=cb0ce610
DTITLE=Jonny Hill - Wieder mal auf Tournee
DYEAR=1900
DGENRE=Deutsche Schlager
TTITLE0=Nur noch einmal nach Haus' (Detroit City)
TTITLE1=Lucile
TTITLE2=Green Green Grass Of Home
TTITLE3=Carolyn
TTITLE4=Susanna (Oh, Susanna)
TTITLE5=Kann Liebe alles verzeih'n (Some Broken  Hearts Never Mend)
TTITLE6=Komm in meine Welt (Welcome To My World)
TTITLE7=Ich mag so gerne Dicke (The Yellow Rose Of Texas)
TTITLE8=Ein Ring aus Feuer (Ring Of Fire)
TTITLE9=Jenny-Dany (Yonder Comes A Sucker)
TTITLE10=Wieder mal auf Tournee (Leaving On  A Jetplane)
TTITLE11=Freunde
TTITLE12=Papillon
TTITLE13=Glücklichsein mit Dir allein (The Happiness Of Having You)
TTITLE14=Mutter Theresa
TTITLE15=Bei Muttern gibt es immer eine warme Suppe
EXTD=
EXTT0=
EXTT1=
EXTT2=
EXTT3=
EXTT4=
EXTT5=
EXTT6=
EXTT7=
EXTT8=
EXTT9=
EXTT10=
EXTT11=
EXTT12=
EXTT13=
EXTT14=
EXTT15=
PLAYORDER=
